<?xml version="1.0" encoding="UTF-8"?>
<svg version="1.1" xmlns="http://www.w3.org/2000/svg" width="820" height="200">
<path d="M0 0 C4.16138263 -0.08159574 7.9472484 0.01751476 12 1 C12 2.98 12 4.96 12 7 C11.34 7 10.68 7 10 7 C10.19916016 8.19882812 10.19916016 8.19882812 10.40234375 9.421875 C12.2639884 20.99940233 13.18713336 32.27297603 13 44 C16.3 44.33 19.6 44.66 23 45 C23 45.99 23 46.98 23 48 C19.7 48 16.4 48 13 48 C13 56.58 13 65.16 13 74 C15.31 73.01 17.62 72.02 20 71 C21.32 71 22.64 71 24 71 C24 69.35 24 67.7 24 66 C25.32 65.67 26.64 65.34 28 65 C28.14695312 65.81082031 28.29390625 66.62164062 28.4453125 67.45703125 C30.3208228 76.716016 32.73298657 86.47689333 40.875 92.1875 C45.14716136 94.42141644 48.23296848 94.69198845 53 94 C63.54742057 89.04916994 68.47462498 76.86615406 73.13378906 66.859375 C73.88236171 65.25251781 74.65392819 63.65640983 75.4296875 62.0625 C78.07544827 56.22357967 78.21936614 52.30005841 77 46 C79.475 45.505 79.475 45.505 82 45 C82.32798584 43.94498291 82.65597168 42.88996582 82.99389648 41.80297852 C84.20771373 37.9014412 85.42561469 34.00118892 86.64477539 30.10131836 C87.17259017 28.4109131 87.69928595 26.72015803 88.22485352 25.02905273 C88.9790155 22.60308209 89.73714854 20.1783841 90.49609375 17.75390625 C90.73154404 16.99348526 90.96699432 16.23306427 91.20957947 15.44960022 C92.88612829 10.11387171 92.88612829 10.11387171 94 9 C95.99958364 8.95919217 98.00045254 8.95745644 100 9 C99.77036859 17.8721227 96.97030584 25.74345233 94 34 C93.5302584 35.33428673 93.06150131 36.66892049 92.59375 38.00390625 C89.24927465 47.5014507 89.24927465 47.5014507 88 50 C91.34246809 49.37585363 94.67074389 48.69097768 98 48 C98.64839844 47.87109375 99.29679688 47.7421875 99.96484375 47.609375 C115.82649781 44.42465678 115.82649781 44.42465678 128.6875 35.0625 C130.86344817 29.98528761 130.6136433 26.63638213 128.6875 21.5 C123.95476945 14.04846679 114.28397533 10.03191848 106 8 C105.28199219 7.81824219 104.56398438 7.63648438 103.82421875 7.44921875 C87.9021786 4.91666741 70.68433882 6.71800915 56.91796875 15.4375 C53.57659211 18.1595991 52.12178477 20.06051748 51.5625 24.375 C52.24726007 30.04872626 54.92770375 33.2470964 59.25 36.75 C60.61125 37.86375 60.61125 37.86375 62 39 C62 39.66 62 40.32 62 41 C55.64697644 40.53514462 51.54724052 37.93764673 47.4453125 33.20703125 C44.4941383 29.03036946 43.1144115 25.3147355 43.46875 20.16796875 C44.48484801 16.02139232 46.66739202 13.5784201 50 11 C67.79832746 0.45284298 92.85805968 -0.67797629 112.8125 3.125 C122.7304984 5.73564165 130.97863291 9.53753814 137 18 C139.09520176 22.19040352 138.41377025 27.43653387 138 32 C134.27962819 40.21582108 126.13605623 45.54093771 118.046875 48.9375 C108.2860618 52.34127076 98.27716409 53.50492067 88 54 C104.69736156 75.46962893 104.69736156 75.46962893 127 90 C129.23135963 89.93987942 129.23135963 89.93987942 131 89 C133.31882018 84.47830064 133.14517349 80.12236957 132.97265625 75.171875 C133 73 133 73 134 71 C137 72 137 72 138 74 C138.50325799 81.17142633 137.48279426 87.5754562 133.1875 93.5 C130.20919634 95.54226536 128.65216785 96 125 96 C109.40243622 92.32676002 97.38963972 77.25050061 87.84765625 65.28515625 C86.04993488 62.97975362 86.04993488 62.97975362 84 61 C83.56300781 61.83023682 83.56300781 61.83023682 83.1171875 62.67724609 C66.8887931 93.32875359 66.8887931 93.32875359 53 100.5625 C47.53565412 101.35938377 42.921607 100.94119526 37.9375 98.5 C29.44656228 91.27367003 25.56939378 84.93682748 23 74 C16.55690976 78.18330076 11.11737675 82.61649969 5.91015625 88.27734375 C4 90 4 90 1 90 C0.74467249 86.93606987 0.78138667 85.36766788 2.375 82.6875 C2.91125 82.130625 3.4475 81.57375 4 81 C4.66 81 5.32 81 6 81 C6.33 70.44 6.66 59.88 7 49 C-4.88 49 -16.76 49 -29 49 C-29.99 51.475 -29.99 51.475 -31 54 C-32.25432655 56.09331318 -33.52708131 58.17563409 -34.8125 60.25 C-40.88985255 70.5408176 -46.094602 83.86876341 -44 96 C-42.6490712 98.9254644 -42.6490712 98.9254644 -41 101 C-41 101.99 -41 102.98 -41 104 C-43.25 104.3125 -43.25 104.3125 -46 104 C-50.32464392 99.67535608 -51.1440198 95.93489129 -51.25 90 C-50.98580338 74.59530459 -43.54978533 61.42542834 -35 49 C-39.29 49 -43.58 49 -48 49 C-47.34 47.68 -46.68 46.36 -46 45 C-43.37083734 44.60994303 -40.95162703 44.41541531 -38.3125 44.3125 C-32.70071814 43.88095139 -32.70071814 43.88095139 -27.80859375 41.37109375 C-26.19865484 39.23978618 -26.19865484 39.23978618 -24.75 36.8203125 C-22.55778835 33.28732854 -19.96759478 30.26157152 -17.25 27.125 C-16.74146484 26.52502197 -16.23292969 25.92504395 -15.70898438 25.30688477 C-12.7254863 21.82754433 -9.61191471 18.65016353 -6.23461914 15.55541992 C-1.75644897 11.59528763 -1.75644897 11.59528763 0.68359375 6.3203125 C0.76268084 3.57817032 0.76268084 3.57817032 0 0 Z M2 15 C-8.5456868 24.46753248 -8.5456868 24.46753248 -18 35 C-18.97646484 36.21429688 -18.97646484 36.21429688 -19.97265625 37.453125 C-23.25171992 40.89873787 -23.25171992 40.89873787 -25 45 C-14.44 45 -3.88 45 7 45 C7.0926957 38.0110533 7.0926957 38.0110533 6.4140625 31.2890625 C6.28773438 30.51949219 6.16140625 29.74992187 6.03125 28.95703125 C5.8971875 28.18746094 5.763125 27.41789062 5.625 26.625 C5.49867188 25.83222656 5.37234375 25.03945312 5.2421875 24.22265625 C5.04882812 23.07990234 5.04882812 23.07990234 4.8515625 21.9140625 C4.73635254 21.2329541 4.62114258 20.5518457 4.50244141 19.85009766 C4.01974467 17.68593514 4.01974467 17.68593514 2 15 Z " fill="#000000" transform="translate(366,41)"/>
</svg>
